<svg xmlns="http://www.w3.org/2000/svg" width="236" height="28" viewBox="0 0 236 28" fill="none" data-qa="logo-icon">
  <path d="M48.1937 25.6984H41.1937L29.0938 1.89844H35.3938L44.8938 20.7984L54.6937 1.89844H60.4938L48.1937 25.6984Z" fill="white" stroke="white" stroke-width="0.9956" stroke-miterlimit="10"/>
  <path d="M99.3937 6.60078V25.6008H93.4937V6.60078H83.0938V1.80078H109.794V6.60078H99.3937Z" fill="white" stroke="white" stroke-width="0.9956" stroke-miterlimit="10"/>
  <path d="M138 12.8984C137.2 14.0984 135.8 15.1984 134.1 15.4984L141.2 25.6984H134.7L128.4 16.3984H119.2V25.6984H113.5V1.89844H130.5C134.1 1.89844 136.5 2.89844 137.7 4.49844C138.5 5.59844 139 6.89844 139 8.79844C138.9 10.4984 138.6 11.9984 138 12.8984ZM132.9 7.69843C132.4 6.89843 131.5 6.59843 129.8 6.59843H119.2V11.8984H130.2C131.7 11.8984 132.6 11.5984 133 10.9984C133.3 10.4984 133.4 9.89844 133.4 9.39844C133.3 8.69844 133.2 8.09843 132.9 7.69843Z" fill="white" stroke="white" stroke-width="0.9956" stroke-miterlimit="10"/>
  <path d="M193.095 25.7H177.695V1.5H192.895C198.395 1.5 201.595 3.1 203.295 5.8C204.495 7.6 204.795 9.7 204.795 13.2C204.795 17 204.395 19.1 203.395 21C201.795 23.9 198.595 25.7 193.095 25.7ZM199.095 13.4C199.095 11.3 198.795 9.6 198.095 8.7C196.995 7 195.195 6.3 192.095 6.3H183.595V20.9H191.995C195.295 20.9 197.195 20.1 198.195 18.5C198.795 17.5 199.095 15.6 199.095 13.4Z" fill="white" stroke="white" stroke-width="1.0102" stroke-miterlimit="10"/>
  <path d="M208.594 25.7V1.5H232.194V6.4H214.294V11.2H231.694V16H214.294V20.8H232.394V25.7H208.594Z" fill="white" stroke="white" stroke-width="1.0102" stroke-miterlimit="10"/>
  <path d="M22.1937 1.89844H20.8938L18.5938 6.39844L19.4938 8.49844C19.4938 8.49844 21.4938 12.5984 22.4938 14.6984L25.3938 20.4984L26.0938 21.8984L27.9938 25.6984H34.1937L22.1937 1.89844Z" fill="white" stroke="white" stroke-width="0.9956" stroke-miterlimit="10"/>
  <path d="M15.3969 1.89844L2.79688 25.6984H8.89688L11.0969 21.1984L11.4969 20.3984L14.3969 14.7984L17.5969 8.39844L18.5969 6.29844H18.6969L20.8969 1.89844H15.3969Z" fill="#6D98FD" stroke="#6D98FD" stroke-width="0.9956" stroke-miterlimit="10"/>
  <path d="M74.5922 1.89844H73.2922L70.9922 6.39844L71.8922 8.49844C71.8922 8.49844 73.8922 12.5984 74.8922 14.6984L77.7922 20.4984L78.4922 21.8984L80.3922 25.6984H86.5922L74.5922 1.89844Z" fill="white" stroke="white" stroke-width="0.9956" stroke-miterlimit="10"/>
  <path d="M67.7953 1.89844L55.1953 25.6984H61.2953L63.4953 21.1984L63.8953 20.3984L66.7953 14.7984L69.9953 8.39844L71.0953 6.29844L73.2953 1.89844H67.7953Z" fill="#6D98FD" stroke="#6D98FD" stroke-width="0.9956" stroke-miterlimit="10"/>
  <path d="M162.897 1.89844H161.597L159.297 6.39844L160.197 8.49844C160.197 8.49844 162.197 12.5984 163.197 14.6984L166.097 20.4984L166.797 21.8984L168.697 25.6984H174.897L162.897 1.89844Z" fill="white" stroke="white" stroke-width="0.9956" stroke-miterlimit="10"/>
  <path d="M156.1 1.89844L143.5 25.6984H149.5L151.8 21.1984L152.2 20.3984L155.1 14.7984L158.3 8.39844L159.3 6.29844L161.6 1.89844H156.1Z" fill="#6D98FD" stroke="#6D98FD" stroke-width="0.9956" stroke-miterlimit="10"/>
</svg>
